<?xml version="1.0" encoding="utf-8"?>
<!-- Generator: Adobe Illustrator 28.3.0, SVG Export Plug-In . SVG Version: 6.00 Build 0)  -->
<svg version="1.1" xmlns="http://www.w3.org/2000/svg" xmlns:xlink="http://www.w3.org/1999/xlink" x="0px" y="0px"
	 viewBox="0 0 1080 176" style="enable-background:new 0 0 1080 176;" xml:space="preserve">
<style type="text/css">
	.st0{fill:#FCA311;}
	.st1{fill:none;stroke:#000000;stroke-width:3.3628;stroke-miterlimit:10;}
	.st2{display:none;}
</style>
<g id="BG">
</g>
<g id="VIOD">
	<path class="st0" d="M543.71,158.69L459.8,16.15h0c10.25,0,19.72,5.44,24.9,14.28l61.59,105.31c3.28,5.61,11.38,5.61,14.66,0
		l62-106.01c4.92-8.41,13.93-13.58,23.68-13.58l0,0L562.31,158.7c-1.51,2.56-4.26,4.13-7.24,4.13h-4.12
		C547.98,162.83,545.22,161.25,543.71,158.69z"/>
	<path class="st0" d="M723.1,162.83c-39.75,0-68.8-32.28-68.8-74.85c0-43.18,29.05-71.83,68.8-71.83h34.5c40.76,0,69,29.25,69,71.83
		s-28.85,74.85-69,74.85H723.1z M757.6,149.31c32.28,0,55.48-26.03,55.48-60.73c0-34.7-22.8-58.91-55.48-58.91h-34.5
		c-31.88,0-55.08,24.01-55.08,58.91c0,34.7,23.2,60.73,55.08,60.73H757.6z"/>
	<path class="st0" d="M864.14,162.83V29.87c0-7.58,6.14-13.72,13.72-13.72l0,0v132.96C877.85,156.68,871.71,162.83,864.14,162.83
		L864.14,162.83z"/>
	<path class="st0" d="M919.62,162.83V16.15h82.11c39.75,0,68.6,29.25,68.6,71.83s-28.85,74.85-68.6,74.85H919.62z M1001.74,149.31
		c31.88,0,55.08-26.03,55.08-60.73c0-34.7-23.2-58.91-55.08-58.91h-57.5c-6.02,0-10.9,4.88-10.9,10.9v97.85
		c0,6.02,4.88,10.9,10.9,10.9H1001.74z"/>
</g>
<g id="SLASH">
	<path class="st0" d="M651.58,159.63L651.58,159.63L817.48,18.4c3.54-3.01,8.84-2.58,11.85,0.95v0l-165.9,141.23
		C659.89,163.59,654.59,163.16,651.58,159.63z"/>
</g>
<g id="ORI">
	<path class="st0" d="M78.46,162.83c-39.75,0-68.8-32.28-68.8-74.85c0-43.18,29.05-71.83,68.8-71.83h34.5c40.75,0,69,29.25,69,71.83
		s-28.85,74.85-69,74.85H78.46z M78.46,47.3c0-5.14-4.57-9.11-9.65-8.33c-28.64,4.39-54.11,27.38-54.11,49.86
		c0,22.27,25.26,47.66,53.77,52.7c5.2,0.92,9.99-2.99,9.99-8.26V47.3z M112.96,133.3c0,5.14,4.58,9.17,9.64,8.32
		c28.94-4.86,54.31-30.39,54.31-52.78c0-22.41-25.12-45.56-54.32-49.89c-5.08-0.75-9.63,3.2-9.63,8.33L112.96,133.3z"/>
	<path class="st0" d="M360.64,158.25l-36.51-38.66c-0.21-0.22-0.52-0.33-0.82-0.3c-1.58,0.15-2.83,0.15-3.75,0.15h-67.62
		c-0.54,0-0.98-0.44-0.98-0.98v0c0-6.37,5.16-11.53,11.53-11.53l56.62,0c20.79,0,37.85-16.57,38.36-37.35
		c0.64-26.41-12.75-39.72-36.5-39.72h-82.32c-3.9,0-7.06,3.16-7.06,7.06v124.92c0,0.54-0.44,0.98-0.98,0.98h-11.55
		c-0.54,0-0.98-0.44-0.98-0.98V17.13c0-0.54,0.44-0.98,0.98-0.98h101.91c31.68,0,50.04,19.57,50.04,51.65
		c0,24.99-10.94,41.73-30.39,48.53c-0.68,0.24-0.9,1.1-0.39,1.61l42.65,43.21c0.61,0.62,0.17,1.67-0.7,1.67h-10.93
		C367.24,162.83,363.4,161.17,360.64,158.25z"/>
	<path class="st0" d="M414.2,162.83V29.87c0-7.58,6.14-13.72,13.72-13.72h0v132.96C427.92,156.68,421.78,162.83,414.2,162.83
		L414.2,162.83z"/>
	<line class="st1" x1="95.81" y1="50.98" x2="95.81" y2="128.51"/>
	<line class="st1" x1="104.22" y1="50.98" x2="104.22" y2="128.51"/>
	<line class="st1" x1="87.41" y1="50.98" x2="87.41" y2="128.51"/>
</g>
<g id="guides" class="st2">
</g>
</svg>
