<?xml version="1.0" encoding="utf-8"?>
<!-- Generator: Adobe Illustrator 28.2.0, SVG Export Plug-In . SVG Version: 6.00 Build 0)  -->
<svg version="1.1" xmlns="http://www.w3.org/2000/svg" xmlns:xlink="http://www.w3.org/1999/xlink" x="0px" y="0px"
	 viewBox="0 0 1080 1080" style="enable-background:new 0 0 1080 1080;" xml:space="preserve">
<style type="text/css">
	.st0{fill:none;stroke:#ffffff;stroke-linecap:round;stroke-miterlimit:10;}
	.st1{display:none;}
	.text{fill:#FFFFFF;}
</style>
<g id="text" class="text">
	<path d="M265.5,581.11c-23.64,0-40.92-19.2-40.92-44.52c0-25.68,17.28-42.72,40.92-42.72h20.52c24.24,0,41.04,17.4,41.04,42.72
		s-17.16,44.52-41.04,44.52H265.5z M265.5,512.4c0-3.05-2.72-5.42-5.74-4.95c-17.03,2.61-32.18,16.28-32.18,29.66
		c0,13.24,15.03,28.34,31.98,31.34c3.09,0.55,5.94-1.78,5.94-4.91V512.4z M286.02,563.54c0,3.05,2.72,5.45,5.74,4.95
		c17.21-2.89,32.3-18.07,32.3-31.39c0-13.33-14.94-27.09-32.31-29.67c-3.02-0.45-5.73,1.9-5.73,4.95L286.02,563.54z"/>
	<path d="M433.33,578.39l-21.71-22.99c-0.12-0.13-0.31-0.19-0.49-0.18c-0.94,0.09-1.68,0.09-2.23,0.09h-40.21
		c-0.32,0-0.58-0.26-0.58-0.58l0,0c0-3.79,3.07-6.86,6.86-6.86l33.68,0c12.36,0,22.51-9.85,22.81-22.21
		c0.38-15.71-7.58-23.62-21.71-23.62h-48.96c-2.32,0-4.2,1.88-4.2,4.2v74.3c0,0.32-0.26,0.58-0.58,0.58h-6.87
		c-0.32,0-0.58-0.26-0.58-0.58v-86.07c0-0.32,0.26-0.58,0.58-0.58h60.61c18.84,0,29.76,11.64,29.76,30.72
		c0,14.86-6.51,24.82-18.07,28.86c-0.41,0.14-0.53,0.65-0.23,0.96l25.36,25.7c0.36,0.37,0.1,0.99-0.42,0.99h-6.5
		C437.25,581.11,434.97,580.12,433.33,578.39z"/>
	<path d="M465.18,581.11v-79.08c0-4.51,3.65-8.16,8.16-8.16l0,0v79.08C473.34,577.45,469.69,581.11,465.18,581.11L465.18,581.11z"/>
	<path d="M542.21,578.64l-49.91-84.77l0,0c6.09,0,11.73,3.23,14.81,8.49L543.74,565c1.95,3.34,6.77,3.34,8.72,0l36.87-63.05
		c2.93-5,8.29-8.08,14.08-8.08l0,0l-50.15,84.78c-0.9,1.52-2.54,2.45-4.3,2.45h-2.45C544.74,581.11,543.11,580.17,542.21,578.64z"/>
	<path d="M648.9,581.11c-23.64,0-40.92-19.2-40.92-44.52c0-25.68,17.28-42.72,40.92-42.72h20.52c24.24,0,41.04,17.4,41.04,42.72
		s-17.16,44.52-41.04,44.52H648.9z M669.42,573.07c19.2,0,33-15.48,33-36.12c0-20.64-13.56-35.04-33-35.04H648.9
		c-18.96,0-32.76,14.28-32.76,35.04c0,20.64,13.8,36.12,32.76,36.12H669.42z"/>
	<path d="M732.78,581.11v-79.08c0-4.51,3.65-8.16,8.16-8.16l0,0v79.08C740.94,577.45,737.29,581.11,732.78,581.11L732.78,581.11z"/>
	<path d="M765.78,581.11v-87.24h48.84c23.64,0,40.8,17.4,40.8,42.72s-17.16,44.52-40.8,44.52H765.78z M814.62,573.07
		c18.96,0,32.76-15.48,32.76-36.12c0-20.64-13.8-35.04-32.76-35.04h-34.2c-3.58,0-6.48,2.9-6.48,6.48v58.19
		c0,3.58,2.9,6.48,6.48,6.48H814.62z"/>
</g>
<g id="modify">
	<path d="M606.36,579.2L606.36,579.2l98.67-84c2.1-1.79,5.26-1.54,7.05,0.57l0,0l-98.67,84C611.3,581.56,608.15,581.31,606.36,579.2
		z"/>
	<line class="st0" x1="275.82" y1="514.58" x2="275.82" y2="560.7"/>
	<line class="st0" x1="280.82" y1="514.58" x2="280.82" y2="560.7"/>
	<line class="st0" x1="270.82" y1="514.58" x2="270.82" y2="560.7"/>
</g>
<g id="guides" class="st1">
</g>
</svg>
