<svg xmlns="http://www.w3.org/2000/svg" xmlns:xlink="http://www.w3.org/1999/xlink" version="1.1" style="enable-background:new 0 0 1080 1080;" xml:space="preserve" width="652" height="112"><rect id="backgroundrect" width="100%" height="100%" x="0" y="0" fill="none" stroke="none" style="" class="selected"/>
<style type="text/css">
	.st0{fill:none;stroke:#ffffff;stroke-linecap:round;stroke-miterlimit:10;}
	.st1{display:none;}
	.text{fill:#FFFFFF;}
</style>



<g class="currentLayer" style=""><title>Layer 1</title><g id="text" class="text" fill="#ffffff" fill-opacity="1">
	<path d="M55.5,105.11000000000001 c-23.64,0 -40.92,-19.2 -40.92,-44.52 c0,-25.68 17.28,-42.72 40.92,-42.72 h20.52 c24.24,0 41.04,17.4 41.04,42.72 s-17.16,44.52 -41.04,44.52 H55.5 zM55.5,36.39999999999998 c0,-3.05 -2.72,-5.42 -5.74,-4.95 c-17.03,2.6100000000000003 -32.18,16.28 -32.18,29.66 c0,13.24 15.03,28.34 31.98,31.34 c3.09,0.55 5.94,-1.78 5.94,-4.91 V36.39999999999998 zM76.01999999999998,87.53999999999996 c0,3.05 2.72,5.45 5.74,4.95 c17.21,-2.89 32.3,-18.07 32.3,-31.39 c0,-13.33 -14.94,-27.09 -32.31,-29.67 c-3.02,-0.45 -5.73,1.9 -5.73,4.95 L76.01999999999998,87.53999999999996 z" id="svg_1" fill="#ffffff" fill-opacity="1"/>
	<path d="M223.32999999999998,102.38999999999999 l-21.71,-22.99 c-0.12000000000000002,-0.13 -0.3100000000000001,-0.19000000000000006 -0.4900000000000001,-0.18000000000000005 c-0.9400000000000002,0.09000000000000004 -1.6800000000000004,0.09000000000000004 -2.23,0.09000000000000004 h-40.21 c-0.3200000000000001,0 -0.5800000000000002,-0.26 -0.5800000000000002,-0.5800000000000002 l0,0 c0,-3.79 3.07,-6.86 6.86,-6.86 l33.68,0 c12.36,0 22.51,-9.85 22.81,-22.21 c0.3800000000000001,-15.71 -7.58,-23.62 -21.71,-23.62 h-48.96 c-2.3200000000000003,0 -4.2,1.8800000000000003 -4.2,4.2 v74.3 c0,0.3200000000000001 -0.26,0.5800000000000002 -0.5800000000000002,0.5800000000000002 h-6.87 c-0.3200000000000001,0 -0.5800000000000002,-0.26 -0.5800000000000002,-0.5800000000000002 v-86.07 c0,-0.3200000000000001 0.26,-0.5800000000000002 0.5800000000000002,-0.5800000000000002 h60.61 c18.84,0 29.76,11.64 29.76,30.72 c0,14.86 -6.51,24.82 -18.07,28.86 c-0.4100000000000001,0.14 -0.53,0.6500000000000002 -0.23,0.9600000000000002 l25.36,25.7 c0.3600000000000001,0.3700000000000001 0.1,0.99 -0.4200000000000001,0.99 h-6.5 C227.25,105.11000000000001 224.97000000000003,104.12 223.32999999999998,102.38999999999999 z" id="svg_2" fill="#ffffff" fill-opacity="1"/>
	<path d="M255.18,105.11000000000001 v-79.08 c0,-4.51 3.6500000000000004,-8.16 8.16,-8.16 l0,0 v79.08 C263.34,101.45000000000005 259.69,105.11000000000001 255.18,105.11000000000001 L255.18,105.11000000000001 z" id="svg_3" fill="#ffffff" fill-opacity="1"/>
	<path d="M332.21000000000004,102.63999999999999 l-49.91,-84.77 l0,0 c6.09,0 11.73,3.23 14.81,8.49 L333.74,89 c1.9500000000000002,3.34 6.77,3.34 8.72,0 l36.87,-63.05 c2.93,-5 8.29,-8.08 14.08,-8.08 l0,0 l-50.15,84.78 c-0.9,1.52 -2.54,2.45 -4.3,2.45 h-2.45 C334.74,105.11000000000001 333.11,104.16999999999996 332.21000000000004,102.63999999999999 z" id="svg_4" fill="#ffffff" fill-opacity="1"/>
	<path d="M438.9,105.11000000000001 c-23.64,0 -40.92,-19.2 -40.92,-44.52 c0,-25.68 17.28,-42.72 40.92,-42.72 h20.52 c24.24,0 41.04,17.4 41.04,42.72 s-17.16,44.52 -41.04,44.52 H438.9 zM459.41999999999996,97.07000000000005 c19.2,0 33,-15.48 33,-36.12 c0,-20.64 -13.56,-35.04 -33,-35.04 H438.9 c-18.96,0 -32.76,14.28 -32.76,35.04 c0,20.64 13.8,36.12 32.76,36.12 H459.41999999999996 z" id="svg_5" fill="#ffffff" fill-opacity="1"/>
	<path d="M522.78,105.11000000000001 v-79.08 c0,-4.51 3.6500000000000004,-8.16 8.16,-8.16 l0,0 v79.08 C530.94,101.45000000000005 527.29,105.11000000000001 522.78,105.11000000000001 L522.78,105.11000000000001 z" id="svg_6" fill="#ffffff" fill-opacity="1"/>
	<path d="M555.78,105.11000000000001 v-87.24 h48.84 c23.64,0 40.8,17.4 40.8,42.72 s-17.16,44.52 -40.8,44.52 H555.78 zM604.62,97.07000000000005 c18.96,0 32.76,-15.48 32.76,-36.12 c0,-20.64 -13.8,-35.04 -32.76,-35.04 h-34.2 c-3.58,0 -6.48,2.9 -6.48,6.48 v58.19 c0,3.58 2.9,6.48 6.48,6.48 H604.62 z" id="svg_7" fill="#ffffff" fill-opacity="1"/>
</g><g id="modify" class="" fill="#ffffff" fill-opacity="1">
	<path d="M372.36,97.20000000000005 L372.36,97.20000000000005 l98.67,-84 c2.1,-1.79 5.26,-1.54 7.05,0.5700000000000001 l0,0 l-98.67,84 C377.29999999999995,99.55999999999995 374.15,99.30999999999995 372.36,97.20000000000005 z" id="svg_8" fill="#ffffff" fill-opacity="1"/>
	<line class="st0" x1="41.82000732421875" y1="32.58001708984375" x2="41.82000732421875" y2="78.70001220703125" id="svg_9"/>
	<line class="st0" x1="46.82000732421875" y1="32.58001708984375" x2="46.82000732421875" y2="78.70001220703125" id="svg_10"/>
	<line class="st0" x1="36.82000732421875" y1="32.58001708984375" x2="36.82000732421875" y2="78.70001220703125" id="svg_11"/>
</g><g id="guides" class="st1">
</g></g></svg>